<mxfile host="Electron" agent="Mozilla/5.0 (Windows NT 10.0; Win64; x64) AppleWebKit/537.36 (KHTML, like Gecko) draw.io/28.0.6 Chrome/138.0.7204.100 Electron/37.2.3 Safari/537.36" version="28.0.6">
  <diagram name="Página-1" id="y_Y0neC239T-2UDhTAcx">
    <mxGraphModel dx="2864" dy="2370" grid="1" gridSize="10" guides="1" tooltips="1" connect="1" arrows="1" fold="1" page="1" pageScale="1" pageWidth="827" pageHeight="1169" math="0" shadow="0">
      <root>
        <mxCell id="0" />
        <mxCell id="1" parent="0" />
        <mxCell id="ZDo76giI8adxcHrmFj0S-1" value="Diseñar un esquema para una empresa que realiza mudanzas, tanto dentro del país como al exterior. Se caracteriza por la gran eficiencia en sus mudanzas, para esto lleva un inventario detallado de sus viajes, así el cliente no debe preocuparse por el cuidado de sus objetos.&lt;br&gt;La empresa se organiza de la siguiente forma:&lt;br&gt;● Los objetos pequeños los guarda en canastos. Cada canasto, una vez lleno es cerrado delante del cliente y se registra el número del canasto en una ficha de viaje. Los mismos canastos pueden usarse en distintos viajes.&lt;br&gt;● A los objetos que no caben en canastos, se les asigna una identificación, también se registra en la ficha del viaje.&lt;div&gt;&lt;div&gt;● Cada viaje se identifica con un número, además de la fecha en que se realiza, la hora de&amp;nbsp;&lt;span style=&quot;background-color: transparent; color: light-dark(rgb(0, 0, 0), rgb(255, 255, 255));&quot;&gt;comienzo y la fecha y hora de finalización. Por cada viaje se deben poder identificar los&amp;nbsp;&lt;/span&gt;&lt;span style=&quot;background-color: transparent; color: light-dark(rgb(0, 0, 0), rgb(255, 255, 255));&quot;&gt;canastos y los objetos. Una vez concluida la mudanza el cliente firma en conformidad la&amp;nbsp;&lt;/span&gt;&lt;span style=&quot;background-color: transparent; color: light-dark(rgb(0, 0, 0), rgb(255, 255, 255));&quot;&gt;ficha de viaje.&lt;/span&gt;&lt;/div&gt;&lt;div&gt;● Se desea automatizar el sistema, para ello se debe realizar un modelo que tenga&amp;nbsp;&lt;span style=&quot;background-color: transparent; color: light-dark(rgb(0, 0, 0), rgb(255, 255, 255));&quot;&gt;información sobre los medios de transporte que posee la empresa. Los medios de&amp;nbsp;&lt;/span&gt;&lt;span style=&quot;background-color: transparent; color: light-dark(rgb(0, 0, 0), rgb(255, 255, 255));&quot;&gt;transporte están divididos en categorías (Chicos, medianos y grandes). De ellos se conoce:&amp;nbsp;&lt;/span&gt;&lt;span style=&quot;background-color: transparent; color: light-dark(rgb(0, 0, 0), rgb(255, 255, 255));&quot;&gt;la marca, modelo, patente. Además para cada uno se dispone un historial de las revisiones&amp;nbsp;&lt;/span&gt;&lt;span style=&quot;background-color: transparent; color: light-dark(rgb(0, 0, 0), rgb(255, 255, 255));&quot;&gt;técnicas (fecha, motivo, descripción de la tarea efectuada, monto abonado)&lt;/span&gt;&lt;/div&gt;&lt;div&gt;● Datos del cliente que desea realizar la mudanza: DNI, nombre, apellido, dirección y teléfono&amp;nbsp;&lt;span style=&quot;background-color: transparent; color: light-dark(rgb(0, 0, 0), rgb(255, 255, 255));&quot;&gt;particular, dirección desde donde se va a realizar la mudanza,día que desea realizar la&amp;nbsp;&lt;/span&gt;&lt;span style=&quot;background-color: transparent; color: light-dark(rgb(0, 0, 0), rgb(255, 255, 255));&quot;&gt;mudanza.&lt;/span&gt;&lt;/div&gt;&lt;div&gt;● Personal de la empresa, puede ser administrativo u operativo. Se guarda el legajo, nombre&amp;nbsp;&lt;span style=&quot;background-color: transparent; color: light-dark(rgb(0, 0, 0), rgb(255, 255, 255));&quot;&gt;y apellido, dirección y teléfono particular, datos de familiares a cargo: DNI, apellido y&amp;nbsp;&lt;/span&gt;&lt;span style=&quot;background-color: transparent; color: light-dark(rgb(0, 0, 0), rgb(255, 255, 255));&quot;&gt;nombre. Fecha en que comienza a trabajar en la empresa.&lt;/span&gt;&lt;/div&gt;&lt;div&gt;● Se debe poder obtener un listado de los vehículos y el personal afectado a una mudanza,&amp;nbsp;&lt;span style=&quot;background-color: transparent; color: light-dark(rgb(0, 0, 0), rgb(255, 255, 255));&quot;&gt;para saber su disponibilidad para otra mudanza.&lt;/span&gt;&lt;/div&gt;&lt;div&gt;● Se debe realizar la factura correspondiente a una mudanza. Existen tarifas determinadas&amp;nbsp;&lt;span style=&quot;background-color: transparent; color: light-dark(rgb(0, 0, 0), rgb(255, 255, 255));&quot;&gt;según las características de la mudanza.&lt;/span&gt;&lt;/div&gt;&lt;div&gt;● Se debe poder consultar que canasto está en que viaje y el detalle del mismo, es decir que&amp;nbsp;&lt;span style=&quot;background-color: transparent; color: light-dark(rgb(0, 0, 0), rgb(255, 255, 255));&quot;&gt;contiene dentro del mismo.&lt;/span&gt;&lt;/div&gt;&lt;div&gt;● Se debe poder emitir una guía de viaje, bien detallada.&lt;/div&gt;&lt;/div&gt;" style="text;whiteSpace=wrap;html=1;strokeWidth=1;fontSize=16;" vertex="1" parent="1">
          <mxGeometry x="-600" y="-140" width="520" height="170" as="geometry" />
        </mxCell>
        <mxCell id="ZDo76giI8adxcHrmFj0S-2" value="VIAJE" style="rounded=1;whiteSpace=wrap;html=1;fontSize=20;" vertex="1" parent="1">
          <mxGeometry x="480" y="295" width="120" height="60" as="geometry" />
        </mxCell>
        <mxCell id="ZDo76giI8adxcHrmFj0S-3" value="NUMERO_VIAJE*" style="ellipse;whiteSpace=wrap;html=1;fontSize=16;" vertex="1" parent="1">
          <mxGeometry x="615" y="460" width="170" height="30" as="geometry" />
        </mxCell>
        <mxCell id="ZDo76giI8adxcHrmFj0S-4" value="FECHA_SALIDA" style="ellipse;whiteSpace=wrap;html=1;fontSize=16;" vertex="1" parent="1">
          <mxGeometry x="632.5" y="420" width="137.5" height="30" as="geometry" />
        </mxCell>
        <mxCell id="ZDo76giI8adxcHrmFj0S-5" value="" style="endArrow=none;html=1;rounded=0;exitX=1;exitY=1;exitDx=0;exitDy=0;" edge="1" parent="1" source="ZDo76giI8adxcHrmFj0S-2">
          <mxGeometry width="50" height="50" relative="1" as="geometry">
            <mxPoint x="410" y="310" as="sourcePoint" />
            <mxPoint x="630" y="460" as="targetPoint" />
          </mxGeometry>
        </mxCell>
        <mxCell id="ZDo76giI8adxcHrmFj0S-6" value="" style="endArrow=none;html=1;rounded=0;entryX=0;entryY=0;entryDx=0;entryDy=0;exitX=1;exitY=0.617;exitDx=0;exitDy=0;exitPerimeter=0;" edge="1" parent="1" source="ZDo76giI8adxcHrmFj0S-2" target="ZDo76giI8adxcHrmFj0S-4">
          <mxGeometry width="50" height="50" relative="1" as="geometry">
            <mxPoint x="660" y="390" as="sourcePoint" />
            <mxPoint x="710" y="340" as="targetPoint" />
          </mxGeometry>
        </mxCell>
        <mxCell id="ZDo76giI8adxcHrmFj0S-7" value="FICHA_VIAJE" style="rounded=1;whiteSpace=wrap;html=1;fontSize=20;" vertex="1" parent="1">
          <mxGeometry x="465" y="490" width="150" height="50" as="geometry" />
        </mxCell>
        <mxCell id="ZDo76giI8adxcHrmFj0S-10" style="edgeStyle=orthogonalEdgeStyle;rounded=0;orthogonalLoop=1;jettySize=auto;html=1;" edge="1" parent="1" source="ZDo76giI8adxcHrmFj0S-9" target="ZDo76giI8adxcHrmFj0S-2">
          <mxGeometry relative="1" as="geometry" />
        </mxCell>
        <mxCell id="ZDo76giI8adxcHrmFj0S-11" style="edgeStyle=orthogonalEdgeStyle;rounded=0;orthogonalLoop=1;jettySize=auto;html=1;entryX=0.5;entryY=0;entryDx=0;entryDy=0;" edge="1" parent="1" source="ZDo76giI8adxcHrmFj0S-9" target="ZDo76giI8adxcHrmFj0S-7">
          <mxGeometry relative="1" as="geometry" />
        </mxCell>
        <mxCell id="ZDo76giI8adxcHrmFj0S-9" value="1" style="rhombus;whiteSpace=wrap;html=1;fontSize=18;" vertex="1" parent="1">
          <mxGeometry x="515" y="400" width="50" height="50" as="geometry" />
        </mxCell>
        <mxCell id="ZDo76giI8adxcHrmFj0S-12" value="CANASTO" style="rounded=1;whiteSpace=wrap;html=1;fontSize=20;" vertex="1" parent="1">
          <mxGeometry x="665" y="670" width="120" height="60" as="geometry" />
        </mxCell>
        <mxCell id="ZDo76giI8adxcHrmFj0S-14" style="edgeStyle=orthogonalEdgeStyle;rounded=0;orthogonalLoop=1;jettySize=auto;html=1;endArrow=none;endFill=0;entryX=0.5;entryY=0;entryDx=0;entryDy=0;" edge="1" parent="1" source="ZDo76giI8adxcHrmFj0S-13" target="ZDo76giI8adxcHrmFj0S-12">
          <mxGeometry relative="1" as="geometry" />
        </mxCell>
        <mxCell id="ZDo76giI8adxcHrmFj0S-15" style="edgeStyle=orthogonalEdgeStyle;rounded=0;orthogonalLoop=1;jettySize=auto;html=1;entryX=0.5;entryY=1;entryDx=0;entryDy=0;endArrow=none;endFill=0;" edge="1" parent="1" source="ZDo76giI8adxcHrmFj0S-13" target="ZDo76giI8adxcHrmFj0S-7">
          <mxGeometry relative="1" as="geometry" />
        </mxCell>
        <mxCell id="ZDo76giI8adxcHrmFj0S-13" value="2" style="rhombus;whiteSpace=wrap;html=1;fontSize=18;" vertex="1" parent="1">
          <mxGeometry x="515" y="580" width="50" height="50" as="geometry" />
        </mxCell>
        <mxCell id="ZDo76giI8adxcHrmFj0S-16" value="NUMERO_CANASTO*" style="ellipse;whiteSpace=wrap;html=1;fontSize=16;" vertex="1" parent="1">
          <mxGeometry x="850" y="750" width="180" height="30" as="geometry" />
        </mxCell>
        <mxCell id="ZDo76giI8adxcHrmFj0S-18" value="" style="endArrow=none;html=1;rounded=0;entryX=0;entryY=0.5;entryDx=0;entryDy=0;exitX=0.5;exitY=1;exitDx=0;exitDy=0;" edge="1" parent="1" source="ZDo76giI8adxcHrmFj0S-12" target="ZDo76giI8adxcHrmFj0S-16">
          <mxGeometry width="50" height="50" relative="1" as="geometry">
            <mxPoint x="570" y="670" as="sourcePoint" />
            <mxPoint x="620" y="620" as="targetPoint" />
          </mxGeometry>
        </mxCell>
        <mxCell id="ZDo76giI8adxcHrmFj0S-19" value="OBJETO_SUELTO" style="rounded=1;whiteSpace=wrap;html=1;fontSize=20;" vertex="1" parent="1">
          <mxGeometry x="827" y="485" width="180" height="60" as="geometry" />
        </mxCell>
        <mxCell id="ZDo76giI8adxcHrmFj0S-22" style="edgeStyle=orthogonalEdgeStyle;rounded=0;orthogonalLoop=1;jettySize=auto;html=1;entryX=1;entryY=0.5;entryDx=0;entryDy=0;endArrow=none;endFill=0;" edge="1" parent="1" source="ZDo76giI8adxcHrmFj0S-21" target="ZDo76giI8adxcHrmFj0S-7">
          <mxGeometry relative="1" as="geometry" />
        </mxCell>
        <mxCell id="ZDo76giI8adxcHrmFj0S-23" style="edgeStyle=orthogonalEdgeStyle;rounded=0;orthogonalLoop=1;jettySize=auto;html=1;entryX=0;entryY=0.5;entryDx=0;entryDy=0;endArrow=none;endFill=0;" edge="1" parent="1" source="ZDo76giI8adxcHrmFj0S-21" target="ZDo76giI8adxcHrmFj0S-19">
          <mxGeometry relative="1" as="geometry" />
        </mxCell>
        <mxCell id="ZDo76giI8adxcHrmFj0S-21" value="3" style="rhombus;whiteSpace=wrap;html=1;fontSize=18;" vertex="1" parent="1">
          <mxGeometry x="690" y="490" width="50" height="50" as="geometry" />
        </mxCell>
        <mxCell id="ZDo76giI8adxcHrmFj0S-24" value="MEDIO_TRANSPORTE" style="rounded=1;whiteSpace=wrap;html=1;fontSize=20;" vertex="1" parent="1">
          <mxGeometry x="50" y="295" width="220" height="60" as="geometry" />
        </mxCell>
        <mxCell id="ZDo76giI8adxcHrmFj0S-25" value="TIPO" style="ellipse;whiteSpace=wrap;html=1;fontSize=16;" vertex="1" parent="1">
          <mxGeometry x="185" y="210" width="170" height="30" as="geometry" />
        </mxCell>
        <mxCell id="ZDo76giI8adxcHrmFj0S-26" value="" style="endArrow=none;html=1;rounded=0;entryX=0.329;entryY=1.067;entryDx=0;entryDy=0;entryPerimeter=0;exitX=0.645;exitY=0.017;exitDx=0;exitDy=0;exitPerimeter=0;" edge="1" parent="1" source="ZDo76giI8adxcHrmFj0S-24" target="ZDo76giI8adxcHrmFj0S-25">
          <mxGeometry width="50" height="50" relative="1" as="geometry">
            <mxPoint x="190" y="420" as="sourcePoint" />
            <mxPoint x="240" y="370" as="targetPoint" />
          </mxGeometry>
        </mxCell>
        <mxCell id="ZDo76giI8adxcHrmFj0S-27" value="PATENTE*" style="ellipse;whiteSpace=wrap;html=1;fontSize=16;" vertex="1" parent="1">
          <mxGeometry x="-80" y="235" width="170" height="30" as="geometry" />
        </mxCell>
        <mxCell id="ZDo76giI8adxcHrmFj0S-28" value="" style="endArrow=none;html=1;rounded=0;entryX=0.5;entryY=1;entryDx=0;entryDy=0;exitX=0.168;exitY=-0.033;exitDx=0;exitDy=0;exitPerimeter=0;" edge="1" parent="1" source="ZDo76giI8adxcHrmFj0S-24" target="ZDo76giI8adxcHrmFj0S-27">
          <mxGeometry width="50" height="50" relative="1" as="geometry">
            <mxPoint x="232" y="331" as="sourcePoint" />
            <mxPoint x="236" y="272" as="targetPoint" />
          </mxGeometry>
        </mxCell>
        <mxCell id="ZDo76giI8adxcHrmFj0S-29" value="MODELO" style="ellipse;whiteSpace=wrap;html=1;fontSize=16;" vertex="1" parent="1">
          <mxGeometry x="-50" y="420" width="170" height="30" as="geometry" />
        </mxCell>
        <mxCell id="ZDo76giI8adxcHrmFj0S-30" value="" style="endArrow=none;html=1;rounded=0;entryX=0.25;entryY=1;entryDx=0;entryDy=0;exitX=0.565;exitY=0;exitDx=0;exitDy=0;exitPerimeter=0;" edge="1" parent="1" source="ZDo76giI8adxcHrmFj0S-29" target="ZDo76giI8adxcHrmFj0S-24">
          <mxGeometry width="50" height="50" relative="1" as="geometry">
            <mxPoint x="127" y="328" as="sourcePoint" />
            <mxPoint x="95" y="270" as="targetPoint" />
          </mxGeometry>
        </mxCell>
        <mxCell id="ZDo76giI8adxcHrmFj0S-31" value="REVISION_TECNICA" style="rounded=1;whiteSpace=wrap;html=1;fontSize=20;" vertex="1" parent="1">
          <mxGeometry x="50" y="100" width="220" height="60" as="geometry" />
        </mxCell>
        <mxCell id="ZDo76giI8adxcHrmFj0S-34" style="edgeStyle=orthogonalEdgeStyle;rounded=0;orthogonalLoop=1;jettySize=auto;html=1;" edge="1" parent="1" source="ZDo76giI8adxcHrmFj0S-32" target="ZDo76giI8adxcHrmFj0S-24">
          <mxGeometry relative="1" as="geometry" />
        </mxCell>
        <mxCell id="ZDo76giI8adxcHrmFj0S-35" style="edgeStyle=orthogonalEdgeStyle;rounded=0;orthogonalLoop=1;jettySize=auto;html=1;entryX=0.5;entryY=1;entryDx=0;entryDy=0;endArrow=none;endFill=0;" edge="1" parent="1" source="ZDo76giI8adxcHrmFj0S-32" target="ZDo76giI8adxcHrmFj0S-31">
          <mxGeometry relative="1" as="geometry" />
        </mxCell>
        <mxCell id="ZDo76giI8adxcHrmFj0S-32" value="4" style="rhombus;whiteSpace=wrap;html=1;fontSize=18;" vertex="1" parent="1">
          <mxGeometry x="135" y="200" width="50" height="50" as="geometry" />
        </mxCell>
        <mxCell id="ZDo76giI8adxcHrmFj0S-36" value="CODIGO_REVISION*" style="ellipse;whiteSpace=wrap;html=1;fontSize=16;" vertex="1" parent="1">
          <mxGeometry x="210" y="20" width="170" height="30" as="geometry" />
        </mxCell>
        <mxCell id="ZDo76giI8adxcHrmFj0S-37" value="" style="endArrow=none;html=1;rounded=0;entryX=0.265;entryY=0.833;entryDx=0;entryDy=0;entryPerimeter=0;" edge="1" parent="1" source="ZDo76giI8adxcHrmFj0S-31" target="ZDo76giI8adxcHrmFj0S-36">
          <mxGeometry width="50" height="50" relative="1" as="geometry">
            <mxPoint x="360" y="190" as="sourcePoint" />
            <mxPoint x="410" y="140" as="targetPoint" />
          </mxGeometry>
        </mxCell>
        <mxCell id="ZDo76giI8adxcHrmFj0S-38" value="MONTO" style="ellipse;whiteSpace=wrap;html=1;fontSize=16;" vertex="1" parent="1">
          <mxGeometry x="30" y="20" width="170" height="30" as="geometry" />
        </mxCell>
        <mxCell id="ZDo76giI8adxcHrmFj0S-39" value="" style="endArrow=none;html=1;rounded=0;entryX=0.5;entryY=1;entryDx=0;entryDy=0;exitX=0.382;exitY=-0.017;exitDx=0;exitDy=0;exitPerimeter=0;" edge="1" parent="1" source="ZDo76giI8adxcHrmFj0S-31" target="ZDo76giI8adxcHrmFj0S-38">
          <mxGeometry width="50" height="50" relative="1" as="geometry">
            <mxPoint x="220" y="110" as="sourcePoint" />
            <mxPoint x="295" y="65" as="targetPoint" />
          </mxGeometry>
        </mxCell>
        <mxCell id="ZDo76giI8adxcHrmFj0S-41" style="edgeStyle=orthogonalEdgeStyle;rounded=0;orthogonalLoop=1;jettySize=auto;html=1;entryX=1;entryY=0.5;entryDx=0;entryDy=0;endArrow=none;endFill=0;" edge="1" parent="1" source="ZDo76giI8adxcHrmFj0S-40" target="ZDo76giI8adxcHrmFj0S-24">
          <mxGeometry relative="1" as="geometry" />
        </mxCell>
        <mxCell id="ZDo76giI8adxcHrmFj0S-42" style="edgeStyle=orthogonalEdgeStyle;rounded=0;orthogonalLoop=1;jettySize=auto;html=1;entryX=0;entryY=0.5;entryDx=0;entryDy=0;endArrow=none;endFill=0;" edge="1" parent="1" source="ZDo76giI8adxcHrmFj0S-40" target="ZDo76giI8adxcHrmFj0S-2">
          <mxGeometry relative="1" as="geometry" />
        </mxCell>
        <mxCell id="ZDo76giI8adxcHrmFj0S-40" value="5" style="rhombus;whiteSpace=wrap;html=1;fontSize=18;" vertex="1" parent="1">
          <mxGeometry x="340" y="300" width="50" height="50" as="geometry" />
        </mxCell>
        <mxCell id="ZDo76giI8adxcHrmFj0S-44" value="EMPLEADO" style="rounded=1;whiteSpace=wrap;html=1;fontSize=20;" vertex="1" parent="1">
          <mxGeometry x="430" y="90" width="220" height="60" as="geometry" />
        </mxCell>
        <mxCell id="ZDo76giI8adxcHrmFj0S-51" style="edgeStyle=orthogonalEdgeStyle;rounded=0;orthogonalLoop=1;jettySize=auto;html=1;entryX=0.5;entryY=0;entryDx=0;entryDy=0;endArrow=none;endFill=0;" edge="1" parent="1" source="ZDo76giI8adxcHrmFj0S-46" target="ZDo76giI8adxcHrmFj0S-2">
          <mxGeometry relative="1" as="geometry" />
        </mxCell>
        <mxCell id="ZDo76giI8adxcHrmFj0S-52" style="edgeStyle=orthogonalEdgeStyle;rounded=0;orthogonalLoop=1;jettySize=auto;html=1;entryX=0.5;entryY=1;entryDx=0;entryDy=0;endArrow=none;endFill=0;" edge="1" parent="1" source="ZDo76giI8adxcHrmFj0S-46" target="ZDo76giI8adxcHrmFj0S-44">
          <mxGeometry relative="1" as="geometry" />
        </mxCell>
        <mxCell id="ZDo76giI8adxcHrmFj0S-46" value="6" style="rhombus;whiteSpace=wrap;html=1;fontSize=18;" vertex="1" parent="1">
          <mxGeometry x="515" y="200" width="50" height="50" as="geometry" />
        </mxCell>
        <mxCell id="ZDo76giI8adxcHrmFj0S-49" value="ESTADO" style="ellipse;whiteSpace=wrap;html=1;fontSize=16;" vertex="1" parent="1">
          <mxGeometry x="680" y="390" width="110" height="30" as="geometry" />
        </mxCell>
        <mxCell id="ZDo76giI8adxcHrmFj0S-50" value="" style="endArrow=none;html=1;rounded=0;entryX=0;entryY=0;entryDx=0;entryDy=0;exitX=1;exitY=0.5;exitDx=0;exitDy=0;" edge="1" parent="1" source="ZDo76giI8adxcHrmFj0S-2" target="ZDo76giI8adxcHrmFj0S-49">
          <mxGeometry width="50" height="50" relative="1" as="geometry">
            <mxPoint x="690" y="370" as="sourcePoint" />
            <mxPoint x="740" y="320" as="targetPoint" />
          </mxGeometry>
        </mxCell>
        <mxCell id="ZDo76giI8adxcHrmFj0S-54" value="LEAGAJO*" style="ellipse;whiteSpace=wrap;html=1;fontSize=16;" vertex="1" parent="1">
          <mxGeometry x="640" y="30" width="170" height="30" as="geometry" />
        </mxCell>
        <mxCell id="ZDo76giI8adxcHrmFj0S-55" value="" style="endArrow=none;html=1;rounded=0;entryX=0.365;entryY=0.967;entryDx=0;entryDy=0;entryPerimeter=0;exitX=1;exitY=0;exitDx=0;exitDy=0;" edge="1" parent="1" source="ZDo76giI8adxcHrmFj0S-44" target="ZDo76giI8adxcHrmFj0S-54">
          <mxGeometry width="50" height="50" relative="1" as="geometry">
            <mxPoint x="520" y="140" as="sourcePoint" />
            <mxPoint x="570" y="90" as="targetPoint" />
          </mxGeometry>
        </mxCell>
        <mxCell id="ZDo76giI8adxcHrmFj0S-56" value="TIPO_DE_EMPLEADO" style="ellipse;whiteSpace=wrap;html=1;fontSize=16;" vertex="1" parent="1">
          <mxGeometry x="447.5" y="-10" width="185" height="30" as="geometry" />
        </mxCell>
        <mxCell id="ZDo76giI8adxcHrmFj0S-57" value="" style="endArrow=none;html=1;rounded=0;entryX=0.576;entryY=1;entryDx=0;entryDy=0;entryPerimeter=0;exitX=0.5;exitY=0;exitDx=0;exitDy=0;" edge="1" parent="1" source="ZDo76giI8adxcHrmFj0S-44" target="ZDo76giI8adxcHrmFj0S-56">
          <mxGeometry width="50" height="50" relative="1" as="geometry">
            <mxPoint x="643" y="105" as="sourcePoint" />
            <mxPoint x="691" y="70" as="targetPoint" />
          </mxGeometry>
        </mxCell>
        <mxCell id="ZDo76giI8adxcHrmFj0S-58" value="CLIENTE" style="rounded=1;whiteSpace=wrap;html=1;fontSize=20;" vertex="1" parent="1">
          <mxGeometry x="185" y="485" width="120" height="60" as="geometry" />
        </mxCell>
        <mxCell id="ZDo76giI8adxcHrmFj0S-61" style="edgeStyle=orthogonalEdgeStyle;rounded=0;orthogonalLoop=1;jettySize=auto;html=1;" edge="1" parent="1" source="ZDo76giI8adxcHrmFj0S-59" target="ZDo76giI8adxcHrmFj0S-58">
          <mxGeometry relative="1" as="geometry" />
        </mxCell>
        <mxCell id="ZDo76giI8adxcHrmFj0S-59" value="7" style="rhombus;whiteSpace=wrap;html=1;fontSize=18;" vertex="1" parent="1">
          <mxGeometry x="355" y="490" width="50" height="50" as="geometry" />
        </mxCell>
        <mxCell id="ZDo76giI8adxcHrmFj0S-62" value="" style="endArrow=none;html=1;rounded=0;entryX=0;entryY=0.5;entryDx=0;entryDy=0;exitX=1;exitY=0.5;exitDx=0;exitDy=0;" edge="1" parent="1" source="ZDo76giI8adxcHrmFj0S-59" target="ZDo76giI8adxcHrmFj0S-7">
          <mxGeometry width="50" height="50" relative="1" as="geometry">
            <mxPoint x="280" y="620" as="sourcePoint" />
            <mxPoint x="330" y="570" as="targetPoint" />
          </mxGeometry>
        </mxCell>
        <mxCell id="ZDo76giI8adxcHrmFj0S-63" value="CODIGO_FICHA*" style="ellipse;whiteSpace=wrap;html=1;fontSize=16;" vertex="1" parent="1">
          <mxGeometry x="220" y="590" width="170" height="30" as="geometry" />
        </mxCell>
        <mxCell id="ZDo76giI8adxcHrmFj0S-64" value="" style="endArrow=none;html=1;rounded=0;entryX=0.107;entryY=0.94;entryDx=0;entryDy=0;entryPerimeter=0;exitX=1;exitY=0;exitDx=0;exitDy=0;" edge="1" parent="1" source="ZDo76giI8adxcHrmFj0S-63" target="ZDo76giI8adxcHrmFj0S-7">
          <mxGeometry width="50" height="50" relative="1" as="geometry">
            <mxPoint x="400" y="600" as="sourcePoint" />
            <mxPoint x="450" y="550" as="targetPoint" />
          </mxGeometry>
        </mxCell>
        <mxCell id="ZDo76giI8adxcHrmFj0S-66" value="DIRECCION_SALIDA" style="ellipse;whiteSpace=wrap;html=1;fontSize=16;" vertex="1" parent="1">
          <mxGeometry x="250" y="640" width="170" height="30" as="geometry" />
        </mxCell>
        <mxCell id="ZDo76giI8adxcHrmFj0S-67" value="" style="endArrow=none;html=1;rounded=0;entryX=0.25;entryY=1;entryDx=0;entryDy=0;exitX=0.941;exitY=0.333;exitDx=0;exitDy=0;exitPerimeter=0;" edge="1" parent="1" source="ZDo76giI8adxcHrmFj0S-66" target="ZDo76giI8adxcHrmFj0S-7">
          <mxGeometry width="50" height="50" relative="1" as="geometry">
            <mxPoint x="420" y="640" as="sourcePoint" />
            <mxPoint x="470" y="590" as="targetPoint" />
          </mxGeometry>
        </mxCell>
        <mxCell id="ZDo76giI8adxcHrmFj0S-68" value="FECHA_INICIAL_DESEADA" style="ellipse;whiteSpace=wrap;html=1;fontSize=16;" vertex="1" parent="1">
          <mxGeometry x="220" y="687.5" width="235" height="25" as="geometry" />
        </mxCell>
        <mxCell id="ZDo76giI8adxcHrmFj0S-69" value="" style="endArrow=none;html=1;rounded=0;entryX=0.373;entryY=0.96;entryDx=0;entryDy=0;entryPerimeter=0;exitX=1;exitY=0;exitDx=0;exitDy=0;" edge="1" parent="1" source="ZDo76giI8adxcHrmFj0S-68" target="ZDo76giI8adxcHrmFj0S-7">
          <mxGeometry width="50" height="50" relative="1" as="geometry">
            <mxPoint x="410" y="620" as="sourcePoint" />
            <mxPoint x="460" y="570" as="targetPoint" />
          </mxGeometry>
        </mxCell>
        <mxCell id="ZDo76giI8adxcHrmFj0S-70" value="FECHA_CONTRATO" style="ellipse;whiteSpace=wrap;html=1;fontSize=16;" vertex="1" parent="1">
          <mxGeometry x="690" y="70" width="170" height="30" as="geometry" />
        </mxCell>
        <mxCell id="ZDo76giI8adxcHrmFj0S-71" value="" style="endArrow=none;html=1;rounded=0;entryX=0.047;entryY=0.833;entryDx=0;entryDy=0;entryPerimeter=0;exitX=1;exitY=0.25;exitDx=0;exitDy=0;" edge="1" parent="1" source="ZDo76giI8adxcHrmFj0S-44" target="ZDo76giI8adxcHrmFj0S-70">
          <mxGeometry width="50" height="50" relative="1" as="geometry">
            <mxPoint x="660" y="100" as="sourcePoint" />
            <mxPoint x="712" y="69" as="targetPoint" />
          </mxGeometry>
        </mxCell>
        <mxCell id="ZDo76giI8adxcHrmFj0S-72" value="FACTURA" style="rounded=1;whiteSpace=wrap;html=1;fontSize=20;" vertex="1" parent="1">
          <mxGeometry x="840" y="295" width="180" height="60" as="geometry" />
        </mxCell>
        <mxCell id="ZDo76giI8adxcHrmFj0S-74" style="edgeStyle=orthogonalEdgeStyle;rounded=0;orthogonalLoop=1;jettySize=auto;html=1;entryX=1;entryY=0.5;entryDx=0;entryDy=0;" edge="1" parent="1" source="ZDo76giI8adxcHrmFj0S-73" target="ZDo76giI8adxcHrmFj0S-2">
          <mxGeometry relative="1" as="geometry" />
        </mxCell>
        <mxCell id="ZDo76giI8adxcHrmFj0S-75" style="edgeStyle=orthogonalEdgeStyle;rounded=0;orthogonalLoop=1;jettySize=auto;html=1;" edge="1" parent="1" source="ZDo76giI8adxcHrmFj0S-73" target="ZDo76giI8adxcHrmFj0S-72">
          <mxGeometry relative="1" as="geometry" />
        </mxCell>
        <mxCell id="ZDo76giI8adxcHrmFj0S-73" value="7" style="rhombus;whiteSpace=wrap;html=1;fontSize=18;" vertex="1" parent="1">
          <mxGeometry x="692.5" y="300" width="50" height="50" as="geometry" />
        </mxCell>
        <mxCell id="ZDo76giI8adxcHrmFj0S-76" value="CODIGO_FACTURA" style="ellipse;whiteSpace=wrap;html=1;fontSize=16;" vertex="1" parent="1">
          <mxGeometry x="827" y="200" width="170" height="30" as="geometry" />
        </mxCell>
        <mxCell id="ZDo76giI8adxcHrmFj0S-77" value="" style="endArrow=none;html=1;rounded=0;entryX=0.213;entryY=0.929;entryDx=0;entryDy=0;entryPerimeter=0;exitX=0.201;exitY=0.058;exitDx=0;exitDy=0;exitPerimeter=0;" edge="1" parent="1" source="ZDo76giI8adxcHrmFj0S-72" target="ZDo76giI8adxcHrmFj0S-76">
          <mxGeometry width="50" height="50" relative="1" as="geometry">
            <mxPoint x="800" y="330" as="sourcePoint" />
            <mxPoint x="850" y="280" as="targetPoint" />
          </mxGeometry>
        </mxCell>
        <mxCell id="ZDo76giI8adxcHrmFj0S-80" value="MONTO_TOTAL" style="ellipse;whiteSpace=wrap;html=1;fontSize=16;" vertex="1" parent="1">
          <mxGeometry x="990" y="210" width="170" height="30" as="geometry" />
        </mxCell>
        <mxCell id="ZDo76giI8adxcHrmFj0S-81" value="" style="endArrow=none;html=1;rounded=0;entryX=0.223;entryY=0.949;entryDx=0;entryDy=0;entryPerimeter=0;" edge="1" parent="1" target="ZDo76giI8adxcHrmFj0S-80">
          <mxGeometry width="50" height="50" relative="1" as="geometry">
            <mxPoint x="1000" y="290" as="sourcePoint" />
            <mxPoint x="1070" y="260" as="targetPoint" />
          </mxGeometry>
        </mxCell>
        <mxCell id="ZDo76giI8adxcHrmFj0S-82" value="CODIGO_IDENTIFICACION*" style="ellipse;whiteSpace=wrap;html=1;fontSize=16;" vertex="1" parent="1">
          <mxGeometry x="850" y="620" width="230" height="40" as="geometry" />
        </mxCell>
        <mxCell id="ZDo76giI8adxcHrmFj0S-83" value="" style="endArrow=none;html=1;rounded=0;entryX=0.75;entryY=1;entryDx=0;entryDy=0;exitX=0.538;exitY=0.079;exitDx=0;exitDy=0;exitPerimeter=0;" edge="1" parent="1" source="ZDo76giI8adxcHrmFj0S-82" target="ZDo76giI8adxcHrmFj0S-19">
          <mxGeometry width="50" height="50" relative="1" as="geometry">
            <mxPoint x="1010" y="592" as="sourcePoint" />
            <mxPoint x="1038" y="540" as="targetPoint" />
          </mxGeometry>
        </mxCell>
        <mxCell id="ZDo76giI8adxcHrmFj0S-84" value="CONFORMIDAD" style="ellipse;whiteSpace=wrap;html=1;fontSize=16;" vertex="1" parent="1">
          <mxGeometry x="295" y="720" width="170" height="30" as="geometry" />
        </mxCell>
        <mxCell id="ZDo76giI8adxcHrmFj0S-85" value="" style="endArrow=none;html=1;rounded=0;exitX=1;exitY=0.5;exitDx=0;exitDy=0;entryX=0.404;entryY=0.993;entryDx=0;entryDy=0;entryPerimeter=0;" edge="1" parent="1" source="ZDo76giI8adxcHrmFj0S-84" target="ZDo76giI8adxcHrmFj0S-7">
          <mxGeometry width="50" height="50" relative="1" as="geometry">
            <mxPoint x="500" y="730" as="sourcePoint" />
            <mxPoint x="550" y="680" as="targetPoint" />
          </mxGeometry>
        </mxCell>
        <mxCell id="ZDo76giI8adxcHrmFj0S-86" value="FECHA_FIN" style="ellipse;whiteSpace=wrap;html=1;fontSize=16;" vertex="1" parent="1">
          <mxGeometry x="340" y="410" width="110" height="30" as="geometry" />
        </mxCell>
        <mxCell id="ZDo76giI8adxcHrmFj0S-87" value="" style="endArrow=none;html=1;rounded=0;entryX=0;entryY=1;entryDx=0;entryDy=0;exitX=0.727;exitY=0;exitDx=0;exitDy=0;exitPerimeter=0;" edge="1" parent="1" source="ZDo76giI8adxcHrmFj0S-86" target="ZDo76giI8adxcHrmFj0S-2">
          <mxGeometry width="50" height="50" relative="1" as="geometry">
            <mxPoint x="380" y="400" as="sourcePoint" />
            <mxPoint x="430" y="350" as="targetPoint" />
          </mxGeometry>
        </mxCell>
        <mxCell id="ZDo76giI8adxcHrmFj0S-89" value="&lt;font&gt;CONSULTAR SOBRE EL ESTADO DE LOS&amp;nbsp;&lt;/font&gt;&lt;div&gt;&lt;span style=&quot;background-color: transparent; color: light-dark(rgb(0, 0, 0), rgb(255, 255, 255));&quot;&gt;CLIENTES Y LOS VEHICLUOS&lt;/span&gt;&lt;/div&gt;" style="text;html=1;align=left;verticalAlign=middle;resizable=0;points=[];autosize=1;strokeColor=none;fillColor=none;fontSize=20;" vertex="1" parent="1">
          <mxGeometry x="440" y="-140" width="420" height="60" as="geometry" />
        </mxCell>
        <mxCell id="ZDo76giI8adxcHrmFj0S-90" value="OBJETO" style="rounded=1;whiteSpace=wrap;html=1;fontSize=20;" vertex="1" parent="1">
          <mxGeometry x="642.5" y="880" width="165" height="40" as="geometry" />
        </mxCell>
        <mxCell id="ZDo76giI8adxcHrmFj0S-93" style="edgeStyle=orthogonalEdgeStyle;rounded=0;orthogonalLoop=1;jettySize=auto;html=1;endArrow=none;endFill=0;" edge="1" parent="1" source="ZDo76giI8adxcHrmFj0S-92" target="ZDo76giI8adxcHrmFj0S-12">
          <mxGeometry relative="1" as="geometry" />
        </mxCell>
        <mxCell id="ZDo76giI8adxcHrmFj0S-94" value="" style="edgeStyle=orthogonalEdgeStyle;rounded=0;orthogonalLoop=1;jettySize=auto;html=1;endArrow=none;endFill=0;entryX=0.5;entryY=0;entryDx=0;entryDy=0;" edge="1" parent="1" source="ZDo76giI8adxcHrmFj0S-92" target="ZDo76giI8adxcHrmFj0S-90">
          <mxGeometry relative="1" as="geometry">
            <mxPoint x="725" y="859.9999999999995" as="targetPoint" />
          </mxGeometry>
        </mxCell>
        <mxCell id="ZDo76giI8adxcHrmFj0S-92" value="3" style="rhombus;whiteSpace=wrap;html=1;fontSize=18;" vertex="1" parent="1">
          <mxGeometry x="700" y="770" width="50" height="50" as="geometry" />
        </mxCell>
        <mxCell id="ZDo76giI8adxcHrmFj0S-97" value="NOMBRE_OBJETO" style="ellipse;whiteSpace=wrap;html=1;fontSize=16;" vertex="1" parent="1">
          <mxGeometry x="875" y="890" width="180" height="30" as="geometry" />
        </mxCell>
        <mxCell id="ZDo76giI8adxcHrmFj0S-98" value="" style="endArrow=none;html=1;rounded=0;exitX=1;exitY=0.5;exitDx=0;exitDy=0;entryX=0;entryY=0.5;entryDx=0;entryDy=0;" edge="1" parent="1" source="ZDo76giI8adxcHrmFj0S-90" target="ZDo76giI8adxcHrmFj0S-97">
          <mxGeometry width="50" height="50" relative="1" as="geometry">
            <mxPoint x="815" y="899.9999999999995" as="sourcePoint" />
            <mxPoint x="900" y="890" as="targetPoint" />
          </mxGeometry>
        </mxCell>
        <mxCell id="ZDo76giI8adxcHrmFj0S-99" value="CANTIDAD" style="ellipse;whiteSpace=wrap;html=1;fontSize=16;" vertex="1" parent="1">
          <mxGeometry x="840" y="800" width="180" height="30" as="geometry" />
        </mxCell>
        <mxCell id="ZDo76giI8adxcHrmFj0S-100" value="" style="endArrow=none;html=1;rounded=0;entryX=0;entryY=0.5;entryDx=0;entryDy=0;exitX=1;exitY=0.5;exitDx=0;exitDy=0;" edge="1" parent="1" source="ZDo76giI8adxcHrmFj0S-92" target="ZDo76giI8adxcHrmFj0S-99">
          <mxGeometry width="50" height="50" relative="1" as="geometry">
            <mxPoint x="815" y="879.9999999999995" as="sourcePoint" />
            <mxPoint x="880" y="830" as="targetPoint" />
          </mxGeometry>
        </mxCell>
        <mxCell id="ZDo76giI8adxcHrmFj0S-102" value="CODIGO_OBJETO*" style="ellipse;whiteSpace=wrap;html=1;fontSize=16;" vertex="1" parent="1">
          <mxGeometry x="875" y="940" width="180" height="30" as="geometry" />
        </mxCell>
        <mxCell id="ZDo76giI8adxcHrmFj0S-103" value="" style="endArrow=none;html=1;rounded=0;entryX=0;entryY=0.5;entryDx=0;entryDy=0;exitX=0.96;exitY=1.05;exitDx=0;exitDy=0;exitPerimeter=0;" edge="1" parent="1" source="ZDo76giI8adxcHrmFj0S-90" target="ZDo76giI8adxcHrmFj0S-102">
          <mxGeometry width="50" height="50" relative="1" as="geometry">
            <mxPoint x="680" y="1020" as="sourcePoint" />
            <mxPoint x="730" y="970" as="targetPoint" />
          </mxGeometry>
        </mxCell>
      </root>
    </mxGraphModel>
  </diagram>
</mxfile>
